# This file uses centimeters as units for non-parametric coordinates.

g default
v -0.500000 -0.052638 0.500000
v 0.500000 -0.052638 0.500000
v -0.500000 -0.052638 -0.500000
v 0.500000 -0.052638 -0.500000
v -0.463750 -0.008339 0.463750
v 0.463750 -0.008339 0.463750
v 0.463750 -0.008339 -0.463750
v -0.463750 -0.008339 -0.463750
v -0.308889 -0.000270 0.308889
v 0.308889 -0.000270 0.308889
v 0.308889 -0.000270 -0.308889
v -0.308889 -0.000270 -0.308889
v -0.481143 -0.010664 0.481143
v -0.491053 -0.017286 0.491053
v -0.497675 -0.027196 0.497675
v -0.500000 -0.038885 0.500000
v -0.469453 -0.008339 0.469453
v 0.481143 -0.010664 0.481143
v 0.491053 -0.017286 0.491053
v 0.497675 -0.027196 0.497675
v 0.500000 -0.038885 0.500000
v 0.469453 -0.008339 0.469453
v -0.481143 -0.010664 -0.481143
v -0.491053 -0.017286 -0.491053
v -0.497675 -0.027196 -0.497675
v -0.500000 -0.038885 -0.500000
v -0.469453 -0.008339 -0.469453
v 0.481143 -0.010664 -0.481143
v 0.491053 -0.017286 -0.491053
v 0.497675 -0.027196 -0.497675
v 0.500000 -0.038885 -0.500000
v 0.469453 -0.008339 -0.469453
v -0.308889 -0.008783 0.308889
v 0.308889 -0.008783 0.308889
v 0.308889 -0.008783 -0.308889
v -0.308889 -0.008783 -0.308889
v -0.463153 -0.000868 0.463153
v -0.463750 -0.002309 0.463750
v -0.461711 -0.000270 0.461711
v 0.463153 -0.000868 0.463153
v 0.463750 -0.002309 0.463750
v 0.461711 -0.000270 0.461711
v 0.463153 -0.000868 -0.463153
v 0.463750 -0.002309 -0.463750
v 0.461711 -0.000270 -0.461711
v -0.463153 -0.000868 -0.463153
v -0.463750 -0.002309 -0.463750
v -0.461711 -0.000270 -0.461711
vt 0.126081 0.191111
vt 0.835581 0.197896
vt 0.836917 0.198308
vt 0.834275 0.193741
vt 0.025950 0.837210
vt 0.785349 0.837210
vt 0.785349 0.077811
vt 0.025950 0.077811
vt 0.025950 0.077811
vt 0.027716 0.079577
vt 0.027716 0.835444
vt 0.025950 0.837210
vt 0.032744 0.084606
vt 0.032744 0.830415
vt 0.040270 0.092131
vt 0.040270 0.822890
vt 0.049147 0.101009
vt 0.049147 0.814012
vt 0.771029 0.092131
vt 0.762151 0.101009
vt 0.778554 0.084606
vt 0.783583 0.079577
vt 0.785349 0.077811
vt 0.771029 0.822890
vt 0.762151 0.814012
vt 0.778554 0.830415
vt 0.783583 0.835444
vt 0.785349 0.837210
vt 0.990442 0.043036
vt 0.991135 0.044289
vt 0.991778 0.043447
vt 0.989136 0.038880
vt 0.834275 0.811519
vt 0.836274 0.816929
vt 0.835581 0.815675
vt 0.836917 0.816087
vt 0.989136 0.966380
vt 0.990538 0.044886
vt 0.991181 0.970350
vt 0.991778 0.970947
vt 0.989096 0.046328
vt 0.987097 0.040919
vt 0.989845 0.043633
vt 0.988403 0.045075
vt 0.991135 0.971789
vt 0.991181 0.044044
vt 0.989739 0.045486
vt 0.990442 0.970536
vt 0.836274 0.199150
vt 0.126081 0.808889
vt 0.743860 0.808889
vt 0.743860 0.191111
vt 0.053478 0.105339
vt 0.053478 0.809682
vt 0.757820 0.809682
vt 0.757820 0.105339
vt 0.989739 0.968908
vt 0.988403 0.968497
vt 0.987097 0.964341
vt 0.989096 0.969750
vt 0.991778 0.970947
vt 0.989136 0.038880
vt 0.990442 0.970536
vt 0.991778 0.043447
vt 0.991135 0.044289
vt 0.989136 0.966380
vt 0.991135 0.971789
vt 0.990442 0.043036
vt 0.989845 0.969938
vt 0.990538 0.971192
vt 0.988539 0.039477
vt 0.988539 0.965783
vt 0.834275 0.193741
vt 0.836917 0.198308
vt 0.836274 0.199150
vt 0.835581 0.197896
vt 0.836917 0.816087
vt 0.835581 0.815675
vt 0.836274 0.816929
vt 0.834275 0.811519
vn 0.000000 1.000000 0.000000
vn 0.000000 1.000000 0.000000
vn 0.000000 1.000000 0.000000
vn 0.000000 1.000000 0.000000
vn 0.000000 -1.000000 0.000000
vn 0.000000 -1.000000 0.000000
vn 0.000000 -1.000000 0.000000
vn 0.000000 -1.000000 0.000000
vn -0.996410 0.084665 0.000000
vn -0.941726 0.336380 0.000000
vn -0.996428 0.084443 0.000000
vn -0.941994 0.335631 0.000000
vn -0.762485 0.647006 0.000000
vn -0.762842 0.646585 0.000000
vn -0.251910 0.935765 0.246750
vn -0.246750 0.935765 -0.251911
vn -0.086132 0.992732 0.084050
vn -0.084050 0.992732 -0.086132
vn 0.084050 0.992732 0.086132
vn 0.246750 0.935765 0.251911
vn 0.000000 0.646583 0.762843
vn 0.000000 0.647007 0.762484
vn 0.000000 0.335629 0.941994
vn 0.000000 0.336382 0.941726
vn 0.000000 0.084442 0.996428
vn 0.000000 0.084665 0.996410
vn 0.086132 0.992732 -0.084050
vn 0.251910 0.935765 -0.246750
vn 0.762842 0.646585 0.000000
vn 0.762485 0.647006 0.000000
vn 0.941993 0.335632 0.000000
vn 0.941727 0.336379 0.000000
vn 0.996428 0.084443 0.000000
vn 0.996410 0.084664 0.000000
vn 0.000000 0.084665 -0.996410
vn 0.000000 0.336382 -0.941726
vn 0.000000 0.084442 -0.996428
vn 0.000000 0.335629 -0.941994
vn 0.000000 0.647007 -0.762484
vn 0.000000 0.646583 -0.762844
vn 0.000000 0.000000 1.000000
vn 0.000000 0.000000 1.000000
vn 0.000000 0.000000 -1.000000
vn 0.000000 0.000000 -1.000000
vn 1.000000 0.000000 0.000000
vn 1.000000 0.000000 0.000000
vn -1.000000 0.000000 0.000000
vn -1.000000 0.000000 0.000000
vn 0.000000 1.000000 -0.000000
vn 0.000000 1.000000 0.000000
vn 0.000000 1.000000 0.000000
vn 0.000000 1.000000 0.000000
vn 0.000000 0.000000 -1.000000
vn 0.000000 0.000000 -1.000000
vn 0.000000 0.000000 -1.000000
vn 0.000000 0.000000 -1.000000
vn -1.000000 0.000000 0.000000
vn -1.000000 0.000000 0.000000
vn -1.000000 0.000000 0.000000
vn -1.000000 0.000000 0.000000
vn 0.000000 0.000000 1.000000
vn 0.000000 0.000000 1.000000
vn 0.000000 0.000000 1.000000
vn 0.000000 0.000000 1.000000
vn 1.000000 0.000000 0.000000
vn 1.000000 0.000000 0.000000
vn 1.000000 0.000000 0.000000
vn 1.000000 0.000000 0.000000
vn -0.997944 0.064096 0.000000
vn -0.923869 0.382710 0.000000
vn -0.997949 0.064013 0.000000
vn -0.923900 0.382635 0.000000
vn -0.382671 0.923885 0.000000
vn -0.006398 0.999959 0.006378
vn -0.382681 0.923880 0.000000
vn -0.006378 0.999959 -0.006398
vn 0.000000 0.923881 0.382681
vn 0.006378 0.999959 0.006398
vn 0.000000 0.923881 0.382681
vn 0.000000 0.382678 0.923882
vn 0.000000 0.064022 0.997949
vn 0.000000 0.382678 0.923882
vn 0.000000 0.064089 0.997944
vn 0.382675 0.923883 0.000000
vn 0.006398 0.999959 -0.006378
vn 0.382678 0.923882 0.000000
vn 0.923898 0.382639 0.000000
vn 0.997949 0.064014 0.000000
vn 0.923870 0.382706 0.000000
vn 0.997944 0.064095 0.000000
vn 0.000000 0.923881 -0.382681
vn 0.000000 0.923881 -0.382681
vn 0.000000 0.382678 -0.923882
vn 0.000000 0.064022 -0.997949
vn 0.000000 0.382678 -0.923882
vn 0.000000 0.064089 -0.997944
vn 0.000000 0.000000 1.000000
vn 0.000000 0.000000 1.000000
vn 1.000000 0.000000 0.000000
vn 1.000000 0.000000 0.000000
vn 0.000000 0.000000 -1.000000
vn 0.000000 0.000000 -1.000000
vn -1.000000 0.000000 0.000000
vn -1.000000 0.000000 0.000000
vn 0.000000 1.000000 -0.000000
vn 0.000000 1.000000 0.000000
vn 0.000000 1.000000 0.000000
vn 0.000000 1.000000 0.000000
s 1
g pCube28
f 33/1/1 34/52/2 36/50/3
f 36/50/3 34/52/2 35/51/4
s 2
f 3/5/5 4/6/6 1/8/7
f 1/8/7 4/6/6 2/7/8
s 3
f 16/9/9 15/10/10 26/12/11
f 26/12/11 15/10/10 25/11/12
f 15/10/10 14/13/13 25/11/12
f 25/11/12 14/13/13 24/14/14
f 14/13/13 13/15/15 24/14/14
f 24/14/14 13/15/15 23/16/16
f 13/15/15 17/17/17 23/16/16
f 23/16/16 17/17/17 27/18/18
f 17/17/17 13/15/15 22/20/19
f 22/20/19 13/15/15 18/19/20
f 13/15/15 14/13/21 18/19/20
f 18/19/20 14/13/21 19/21/22
f 14/13/21 15/10/23 19/21/22
f 19/21/22 15/10/23 20/22/24
f 15/10/23 16/9/25 20/22/24
f 20/22/24 16/9/25 21/23/26
f 22/20/19 18/19/20 32/25/27
f 32/25/27 18/19/20 28/24/28
f 18/19/20 19/21/29 28/24/28
f 28/24/28 19/21/29 29/26/30
f 19/21/29 20/22/31 29/26/30
f 29/26/30 20/22/31 30/27/32
f 20/22/31 21/23/33 30/27/32
f 30/27/32 21/23/33 31/28/34
f 26/12/35 25/11/36 31/28/37
f 31/28/37 25/11/36 30/27/38
f 25/11/36 24/14/39 30/27/38
f 30/27/38 24/14/39 29/26/40
f 24/14/39 23/16/16 29/26/40
f 29/26/40 23/16/16 28/24/28
f 23/16/16 27/18/18 28/24/28
f 28/24/28 27/18/18 32/25/27
f 1/8/41 2/7/42 16/9/25
f 16/9/25 2/7/42 21/23/26
f 26/12/35 31/28/37 3/5/43
f 3/5/43 31/28/37 4/6/44
f 2/7/45 4/6/46 21/23/33
f 21/23/33 4/6/46 31/28/34
f 3/5/47 1/8/48 26/12/11
f 26/12/11 1/8/48 16/9/9
f 17/17/17 22/20/19 5/53/49
f 5/53/49 22/20/19 6/56/50
f 22/20/19 32/25/27 6/56/50
f 6/56/50 32/25/27 7/55/51
f 32/25/27 27/18/18 7/55/51
f 7/55/51 27/18/18 8/54/52
f 27/18/18 17/17/17 8/54/52
f 8/54/52 17/17/17 5/53/49
s 5
f 9/75/53 10/34/54 33/49/55
f 33/49/55 10/34/54 34/79/56
s 6
f 10/76/57 11/35/58 34/2/59
f 34/2/59 11/35/58 35/78/60
s 7
f 11/74/61 12/36/62 35/3/63
f 35/3/63 12/36/62 36/77/64
s 8
f 12/73/65 9/33/66 36/4/67
f 36/4/67 9/33/66 33/80/68
s 9
f 38/37/69 37/72/70 47/62/71
f 47/62/71 37/72/70 46/71/72
s 10
f 37/72/73 39/59/74 46/71/75
f 46/71/75 39/59/74 48/42/76
f 39/41/74 37/38/77 42/60/78
f 42/60/78 37/38/77 40/70/79
s 12
f 37/38/80 38/65/81 40/70/82
f 40/70/82 38/65/81 41/45/83
s 10
f 42/44/78 40/43/84 45/58/85
f 45/58/85 40/43/84 43/69/86
s 14
f 40/43/87 41/68/88 43/69/89
f 43/69/89 41/68/88 44/48/90
s 10
f 45/47/85 43/46/91 48/57/76
f 48/57/76 43/46/91 46/39/92
s 16
f 43/46/93 44/64/94 46/39/95
f 46/39/95 44/64/94 47/40/96
s 12
f 5/30/97 6/67/98 38/65/81
f 38/65/81 6/67/98 41/45/83
s 14
f 6/29/99 7/63/100 41/68/88
f 41/68/88 7/63/100 44/48/90
s 16
f 7/31/101 8/61/102 44/64/94
f 44/64/94 8/61/102 47/40/96
s 9
f 8/32/103 5/66/104 47/62/71
f 47/62/71 5/66/104 38/37/69
s 10
f 39/41/74 42/60/78 9/75/105
f 9/75/105 42/60/78 10/34/106
f 42/44/78 45/58/85 10/76/106
f 10/76/106 45/58/85 11/35/107
f 45/47/85 48/57/76 11/74/107
f 11/74/107 48/57/76 12/36/108
f 48/42/76 39/59/74 12/73/108
f 12/73/108 39/59/74 9/33/105
