# This file uses centimeters as units for non-parametric coordinates.

g default
v -0.435373 0.923179 0.479860
v -0.466830 0.923179 0.466830
v -0.479860 0.923179 0.435373
v -0.400422 0.937657 0.444908
v -0.444908 0.937657 0.400422
v -0.431878 0.937657 0.431879
v 0.444908 0.937657 0.400422
v 0.400422 0.937657 0.444908
v 0.431879 0.937657 0.431879
v 0.435373 0.923179 0.479860
v 0.466830 0.923179 0.466830
v 0.479860 0.923179 0.435373
v -0.449851 0.888228 0.494337
v -0.481307 0.888228 0.481307
v -0.494337 0.888228 0.449851
v 0.494337 0.888228 0.449851
v 0.481307 0.888228 0.481307
v 0.449851 0.888228 0.494337
v 0.400422 0.937657 -0.444908
v 0.444908 0.937657 -0.400422
v 0.431879 0.937657 -0.431879
v 0.479860 0.923179 -0.435373
v 0.466830 0.923179 -0.466830
v 0.435373 0.923179 -0.479860
v 0.449851 0.888228 -0.494337
v 0.481307 0.888228 -0.481307
v 0.494337 0.888228 -0.449851
v -0.479860 0.923179 -0.435373
v -0.466830 0.923179 -0.466830
v -0.435373 0.923179 -0.479860
v -0.494337 0.888228 -0.449851
v -0.481307 0.888228 -0.481307
v -0.449851 0.888228 -0.494337
v -0.400422 0.937657 -0.444908
v -0.431878 0.937657 -0.431879
v -0.444908 0.937657 -0.400422
v 0.481307 -0.051017 0.481307
v 0.449851 -0.051017 0.494337
v 0.494337 -0.051017 0.449851
v -0.481307 -0.051017 0.481307
v -0.494337 -0.051017 0.449851
v -0.449851 -0.051017 0.494337
v 0.481307 -0.051017 -0.481307
v 0.494337 -0.051017 -0.449851
v 0.449851 -0.051017 -0.494337
v -0.481307 -0.051017 -0.481307
v -0.449851 -0.051017 -0.494337
v -0.494337 -0.051017 -0.449851
vt 0.337391 0.301842
vt 0.347779 0.311948
vt 0.357122 0.302598
vt 0.554813 0.292210
vt 0.357129 0.489612
vt 0.347779 0.480262
vt 0.347023 0.292210
vt 0.346740 0.281821
vt 0.535549 0.292210
vt 0.535831 0.281821
vt 0.346740 0.510388
vt 0.743621 0.281821
vt 0.328041 0.281821
vt 0.534792 0.311940
vt 0.545181 0.301842
vt 0.554531 0.281821
vt 0.743339 0.292210
vt 0.327759 0.292210
vt 0.138950 0.281821
vt 0.337391 0.490368
vt 0.347023 0.500000
vt 0.535831 0.510388
vt 0.525443 0.489612
vt 0.535549 0.500000
vt 0.545181 0.717140
vt 0.545181 0.906231
vt 0.535831 0.915580
vt 0.346740 0.915580
vt 0.337391 0.906231
vt 0.337391 0.717140
vt 0.525443 0.302598
vt 0.346740 0.084420
vt 0.328041 0.084420
vt 0.554531 0.084420
vt 0.535831 0.084420
vt 0.534792 0.480261
vt 0.545181 0.490368
vt 0.535831 0.707790
vt 0.743621 0.084420
vt 0.139232 0.292210
vt 0.138950 0.084420
vt 0.346740 0.707790
vt 0.337391 0.292210
vt 0.347779 0.302598
vt 0.534792 0.302598
vt 0.545181 0.292210
vt 0.337391 0.281821
vt 0.545181 0.281821
vt 0.534792 0.489612
vt 0.545181 0.500000
vt 0.752971 0.292210
vt 0.752971 0.281821
vt 0.545181 0.510388
vt 0.337391 0.500000
vt 0.129600 0.292210
vt 0.337391 0.510388
vt 0.129600 0.281821
vt 0.347779 0.489612
vt 0.545181 0.084420
vt 0.545181 0.915580
vt 0.337391 0.084420
vt 0.337391 0.915580
vt 0.545181 0.707790
vt 0.752971 0.084420
vt 0.129600 0.084420
vt 0.337391 0.707790
vn -0.198756 0.959683 0.198756
vn -0.001057 0.999999 0.001057
vn -0.372290 0.928038 0.012114
vn -0.282297 0.959325 0.002142
vn -0.012998 0.928330 0.371530
vn -0.002271 0.961120 0.276121
vn 0.922431 0.386045 0.009564
vn 0.812520 0.475963 0.336556
vn 0.999833 0.011573 0.014177
vn 0.923744 0.017084 0.382628
vn 0.009271 0.385939 0.922478
vn 0.014165 0.011908 0.999829
vn 0.336558 0.475962 0.812520
vn 0.382628 0.017084 0.923745
vn 0.009565 0.386043 -0.922431
vn 0.336558 0.475962 -0.812520
vn 0.014177 0.011573 -0.999833
vn 0.382625 0.017084 -0.923746
vn 0.922477 0.385941 -0.009271
vn 0.999829 0.011908 -0.014165
vn 0.812521 0.475962 -0.336557
vn 0.923745 0.017084 -0.382628
vn -0.198756 0.959684 -0.198754
vn -0.001056 0.999999 -0.001056
vn -0.012114 0.928037 -0.372292
vn -0.002099 0.960971 -0.276643
vn -0.371529 0.928330 -0.012998
vn -0.270250 0.962788 -0.002223
vn 0.002099 0.960971 0.276640
vn 0.012114 0.928038 0.372288
vn -0.009564 0.386044 0.922431
vn -0.014177 0.011573 0.999833
vn -0.013992 0.000000 0.999902
vn 0.013992 0.000000 0.999902
vn -0.014165 0.011908 -0.999829
vn -0.013992 0.000000 -0.999902
vn 0.013992 0.000000 -0.999902
vn 0.999902 0.000000 0.013992
vn 0.999902 0.000000 -0.013992
vn -0.999833 0.011573 -0.014177
vn -0.999902 0.000000 -0.013992
vn -0.999829 0.011908 0.014165
vn -0.999902 0.000000 0.013992
vn 0.276120 0.961120 0.002271
vn 0.371528 0.928331 0.012998
vn 0.276642 0.960971 -0.002099
vn 0.372290 0.928037 -0.012114
vn -0.922476 0.385942 0.009271
vn -0.922431 0.386043 -0.009564
vn -0.009271 0.385941 -0.922477
vn 0.012998 0.928332 -0.371526
vn 0.002271 0.961121 -0.276118
vn 0.001057 0.999999 0.001057
vn 0.001057 0.999999 -0.001057
vn 0.000000 -1.000000 0.000000
vn 0.000000 -1.000000 0.000000
vn 0.000000 -1.000000 0.000000
vn 0.000000 -1.000000 0.000000
vn 0.000000 -1.000000 -0.000000
vn 0.000000 -1.000000 0.000000
vn 0.000000 -1.000000 -0.000000
vn 0.000000 -1.000000 -0.000000
vn 0.000000 -1.000000 0.000000
vn 0.000000 -1.000000 -0.000000
vn 0.000000 -1.000000 -0.000000
vn 0.000000 -1.000000 -0.000000
vn -0.336557 0.475963 0.812520
vn -0.382625 0.017084 0.923746
vn -0.812520 0.475963 0.336557
vn -0.923744 0.017084 0.382629
vn 0.198756 0.959683 0.198758
vn -0.382684 0.000000 0.923879
vn -0.923879 0.000000 0.382686
vn 0.923880 0.000000 0.382683
vn 0.382681 0.000000 0.923881
vn 0.198757 0.959683 -0.198756
vn 0.382684 0.000000 -0.923879
vn 0.923879 0.000000 -0.382684
vn -0.812520 0.475963 -0.336557
vn -0.923744 0.017084 -0.382630
vn -0.336557 0.475963 -0.812520
vn -0.382628 0.017084 -0.923745
vn -0.923879 0.000000 -0.382685
vn -0.382681 0.000000 -0.923881
s 1
g pCube102
f 2/43/1 6/44/2 3/1/3
f 3/1/3 6/44/2 5/2/4
f 2/43/1 1/7/5 6/44/2
f 6/44/2 1/7/5 4/3/6
s 2
f 12/4/7 11/46/8 16/16/9
f 16/16/9 11/46/8 17/48/10
s 3
f 10/9/11 18/10/12 11/46/13
f 11/46/13 18/10/12 17/48/14
s 4
f 24/24/15 23/50/16 25/22/17
f 25/22/17 23/50/16 26/53/18
s 2
f 22/17/19 27/12/20 23/51/21
f 23/51/21 27/12/20 26/52/22
s 1
f 29/54/23 35/58/24 30/21/25
f 30/21/25 35/58/24 34/5/26
f 29/54/23 28/20/27 35/58/24
f 35/58/24 28/20/27 36/6/28
f 4/3/6 1/7/5 8/31/29
f 8/31/29 1/7/5 10/9/30
s 3
f 1/7/31 13/8/32 10/9/11
f 10/9/11 13/8/32 18/10/12
f 13/8/32 42/32/33 18/10/12
f 18/10/12 42/32/33 38/35/34
s 4
f 33/11/35 25/22/17 47/42/36
f 47/42/36 25/22/17 45/38/37
s 2
f 16/16/9 39/34/38 27/12/20
f 27/12/20 39/34/38 44/39/39
s 9
f 31/19/40 48/41/41 15/13/42
f 15/13/42 48/41/41 41/33/43
s 1
f 7/14/44 12/15/45 20/36/46
f 20/36/46 12/15/45 22/37/47
s 2
f 12/4/7 16/16/9 22/17/19
f 22/17/19 16/16/9 27/12/20
s 9
f 15/13/42 3/18/48 31/19/40
f 31/19/40 3/18/48 28/40/49
s 1
f 3/1/3 5/2/4 28/20/27
f 28/20/27 5/2/4 36/6/28
s 4
f 33/11/35 30/21/50 25/22/17
f 25/22/17 30/21/50 24/24/15
s 1
f 30/21/25 34/5/26 24/24/51
f 24/24/51 34/5/26 19/23/52
f 5/2/4 6/44/2 36/6/28
f 4/3/6 8/31/29 6/44/2
f 7/14/44 20/36/46 9/45/53
f 19/23/52 34/5/26 21/49/54
f 8/31/29 9/45/53 6/44/2
f 20/36/46 21/49/54 9/45/53
f 34/5/26 35/58/24 21/49/54
f 36/6/28 6/44/2 35/58/24
f 6/44/2 9/45/53 35/58/24
f 9/45/53 21/49/54 35/58/24
s 11
f 46/66/55 47/42/56 48/30/57
f 47/42/56 45/38/58 48/30/57
f 48/30/57 45/38/58 41/29/59
f 45/38/58 43/63/60 41/29/59
f 43/63/60 44/25/61 41/29/59
f 41/29/59 44/25/61 40/62/62
f 40/62/62 44/25/61 42/28/63
f 37/60/64 38/27/65 39/26/66
f 39/26/66 38/27/65 44/25/61
f 44/25/61 38/27/65 42/28/63
s 3
f 1/7/31 2/43/67 13/8/32
f 13/8/32 2/43/67 14/47/68
s 9
f 3/18/48 15/13/42 2/43/69
f 2/43/69 15/13/42 14/47/70
s 1
f 7/14/44 9/45/53 12/15/45
f 12/15/45 9/45/53 11/46/71
f 8/31/29 10/9/30 9/45/53
f 9/45/53 10/9/30 11/46/71
s 3
f 13/8/32 14/47/68 42/32/33
f 42/32/33 14/47/68 40/61/72
s 9
f 14/47/70 15/13/42 40/61/73
f 40/61/73 15/13/42 41/33/43
s 2
f 16/16/9 17/48/10 39/34/38
f 39/34/38 17/48/10 37/59/74
s 3
f 17/48/14 18/10/12 37/59/75
f 37/59/75 18/10/12 38/35/34
s 1
f 19/23/52 21/49/54 24/24/51
f 24/24/51 21/49/54 23/50/76
f 20/36/46 22/37/47 21/49/54
f 21/49/54 22/37/47 23/50/76
s 4
f 25/22/17 26/53/18 45/38/37
f 45/38/37 26/53/18 43/63/77
s 2
f 26/52/22 27/12/20 43/64/78
f 43/64/78 27/12/20 44/39/39
s 9
f 28/40/49 29/55/79 31/19/40
f 31/19/40 29/55/79 32/57/80
s 4
f 30/21/50 33/11/35 29/54/81
f 29/54/81 33/11/35 32/56/82
s 9
f 31/19/40 32/57/80 48/41/41
f 48/41/41 32/57/80 46/65/83
s 4
f 32/56/82 33/11/35 46/66/84
f 46/66/84 33/11/35 47/42/36
